<?xml version="1.0" standalone="no"?>
<!DOCTYPE svg PUBLIC "-//W3C//DTD SVG 20010904//EN"
 "http://www.w3.org/TR/2001/REC-SVG-20010904/DTD/svg10.dtd">
<svg version="1.0" xmlns="http://www.w3.org/2000/svg"
 width="356.000000pt" height="356.000000pt" viewBox="0 0 356.000000 356.000000"
 preserveAspectRatio="xMidYMid meet">
<metadata>
Created by potrace 1.11, written by Peter Selinger 2001-2013
</metadata>
<g transform="translate(0.000000,356.000000) scale(0.100000,-0.100000)"
fill="#000000" stroke="none">
<path d="M2740 3321 l-114 -199 -59 -6 c-81 -8 -168 -49 -217 -102 -22 -24
-40 -48 -40 -54 0 -7 -171 -10 -516 -10 l-515 0 -50 55 c-71 77 -142 110 -239
110 -208 -1 -351 -172 -318 -382 l9 -61 -145 -252 c-80 -139 -146 -254 -146
-256 0 -2 22 -4 50 -4 60 0 131 -23 185 -60 l41 -28 116 201 116 201 84 1 c68
0 93 5 138 26 58 28 122 85 146 132 l15 27 503 0 504 0 21 -34 c30 -48 95
-105 150 -129 35 -16 67 -21 135 -22 l90 0 117 -203 116 -202 24 19 c52 40
115 64 182 69 37 3 67 7 67 9 0 2 -67 120 -149 262 l-149 258 10 44 c21 92 -9
203 -75 275 l-35 40 109 188 c60 104 109 192 109 197 0 6 -140 89 -151 89 -3
0 -56 -89 -119 -199z"/>
<path d="M1427 2220 c-56 -14 -94 -36 -138 -82 l-39 -40 0 56 0 56 -60 0 -60
0 2 -367 3 -368 57 -3 56 -3 4 243 c3 222 5 247 24 288 38 82 101 120 194 120
59 0 108 -30 135 -85 18 -36 20 -64 23 -303 l3 -263 57 3 57 3 3 239 c2 243
-4 319 -34 382 -21 45 -69 93 -109 109 -43 18 -133 25 -178 15z"/>
<path d="M1870 2180 l0 -40 135 0 135 0 2 -337 3 -338 53 -3 52 -3 0 340 0
341 135 0 135 0 0 40 0 40 -325 0 -325 0 0 -40z"/>
<path d="M625 1565 c-40 -33 -117 -58 -182 -59 -38 0 -52 -4 -49 -13 3 -7 63
-113 134 -235 167 -289 162 -278 150 -308 -5 -14 -10 -57 -10 -97 0 -82 27
-154 81 -215 44 -50 136 -95 214 -103 l62 -7 69 -122 c39 -66 103 -178 143
-248 l74 -126 79 45 c44 25 82 48 84 52 3 3 -58 114 -134 246 l-139 240 23 25
c13 14 31 37 41 53 l17 27 504 0 503 0 31 -45 c59 -86 152 -136 259 -139 l66
-2 117 -204 c65 -112 122 -208 127 -213 8 -8 86 29 149 71 9 6 -18 62 -108
216 -66 115 -120 211 -120 215 0 5 9 16 20 26 29 27 68 114 76 172 3 28 1 74
-5 103 l-11 53 141 246 c78 135 148 255 156 267 13 20 11 21 -52 22 -65 1
-170 37 -196 68 -6 8 -14 14 -18 14 -4 0 -60 -93 -126 -208 l-119 -207 -86 0
c-112 0 -171 -26 -244 -106 l-53 -59 -510 0 -510 0 -28 40 c-55 80 -176 135
-282 128 l-55 -3 -119 205 c-66 113 -122 206 -127 207 -4 1 -20 -9 -37 -22z"/>
</g>
</svg>
